<svg id="svg" version="1.1" xmlns="http://www.w3.org/2000/svg" xmlns:xlink="http://www.w3.org/1999/xlink" width="400" height="19.18238993710692" viewBox="0, 0, 400,19.18238993710692"><g id="svgg"><path id="path0" d="M9.000 0.417 C 9.000 0.646,8.925 0.833,8.833 0.833 C 8.742 0.833,8.667 1.021,8.667 1.250 C 8.667 1.479,8.592 1.667,8.500 1.667 C 8.408 1.667,8.333 1.892,8.333 2.167 C 8.333 2.442,8.258 2.667,8.167 2.667 C 8.075 2.667,8.000 2.892,8.000 3.167 C 8.000 3.442,7.925 3.667,7.833 3.667 C 7.742 3.667,7.667 3.929,7.667 4.250 C 7.667 4.571,7.592 4.833,7.500 4.833 C 7.408 4.833,7.333 5.054,7.333 5.323 C 7.333 5.593,7.255 5.862,7.160 5.921 C 7.064 5.980,7.030 6.165,7.083 6.333 C 7.137 6.501,7.102 6.687,7.007 6.746 C 6.901 6.811,6.833 6.654,6.833 6.343 C 6.833 6.063,6.758 5.833,6.667 5.833 C 6.575 5.833,6.500 5.608,6.500 5.333 C 6.500 5.058,6.425 4.833,6.333 4.833 C 6.242 4.833,6.167 4.603,6.167 4.321 C 6.167 3.765,5.844 3.333,5.429 3.333 C 5.285 3.333,5.167 3.465,5.167 3.627 C 5.167 3.788,5.017 4.013,4.833 4.128 C 4.650 4.242,4.500 4.439,4.500 4.564 C 4.500 4.690,4.388 4.886,4.250 5.000 C 4.112 5.114,4.000 5.332,4.000 5.484 C 4.000 5.635,3.850 5.868,3.667 6.000 C 3.483 6.132,3.333 6.356,3.333 6.497 C 3.333 6.638,3.183 6.847,3.000 6.961 C 2.817 7.076,2.667 7.281,2.667 7.418 C 2.667 7.555,2.604 7.667,2.528 7.667 C 2.452 7.667,2.283 7.873,2.153 8.125 C 2.023 8.377,1.823 8.682,1.708 8.804 C 1.594 8.925,1.500 9.281,1.500 9.595 L 1.500 10.167 23.000 10.167 L 44.500 10.167 44.500 9.250 C 44.500 8.746,44.425 8.333,44.333 8.333 C 44.230 8.333,44.167 7.444,44.167 6.000 C 44.167 4.556,44.103 3.667,44.000 3.667 C 43.904 3.667,43.833 3.139,43.833 2.417 C 43.833 1.084,43.331 0.537,43.068 1.583 C 43.011 1.813,42.897 2.000,42.815 2.000 C 42.734 2.000,42.667 2.150,42.667 2.333 C 42.667 2.517,42.592 2.667,42.500 2.667 C 42.408 2.667,42.333 2.892,42.333 3.167 C 42.333 3.442,42.272 3.667,42.198 3.667 C 42.123 3.667,41.959 3.929,41.833 4.250 C 41.707 4.571,41.543 4.833,41.469 4.833 C 41.394 4.833,41.333 4.983,41.333 5.167 C 41.333 5.350,41.258 5.500,41.167 5.500 C 41.075 5.500,41.000 5.650,41.000 5.833 C 41.000 6.017,40.934 6.167,40.854 6.167 C 40.701 6.167,40.434 7.100,40.485 7.458 C 40.501 7.573,40.436 7.667,40.341 7.667 C 40.245 7.667,40.167 7.479,40.167 7.250 C 40.167 7.021,40.092 6.833,40.000 6.833 C 39.908 6.833,39.833 6.425,39.833 5.927 C 39.833 5.428,39.758 4.973,39.667 4.917 C 39.575 4.860,39.500 4.481,39.500 4.073 C 39.500 3.666,39.425 3.333,39.333 3.333 C 39.242 3.333,39.167 2.953,39.167 2.488 C 39.167 1.606,38.915 1.167,38.409 1.167 C 38.211 1.167,38.153 1.264,38.213 1.494 C 38.263 1.685,38.221 1.807,38.112 1.786 C 38.009 1.766,37.897 1.938,37.863 2.167 C 37.829 2.396,37.727 2.674,37.636 2.784 C 37.546 2.895,37.520 3.064,37.579 3.159 C 37.638 3.255,37.607 3.333,37.510 3.333 C 37.413 3.333,37.333 3.483,37.333 3.667 C 37.333 3.850,37.258 4.000,37.167 4.000 C 37.075 4.000,37.000 4.096,37.000 4.213 C 37.000 4.330,36.850 4.535,36.667 4.667 C 36.483 4.799,36.333 5.005,36.333 5.125 C 36.333 5.381,34.920 6.833,34.671 6.833 C 34.577 6.833,34.500 6.913,34.500 7.010 C 34.500 7.107,34.425 7.140,34.333 7.083 C 34.242 7.027,34.167 7.060,34.167 7.157 C 34.167 7.254,34.017 7.333,33.833 7.333 C 33.650 7.333,33.500 7.408,33.500 7.500 C 33.500 7.592,33.350 7.667,33.167 7.667 C 32.983 7.667,32.833 7.742,32.833 7.833 C 32.833 7.925,32.646 8.000,32.417 8.000 C 32.188 8.000,32.000 8.075,32.000 8.167 C 32.000 8.258,31.775 8.333,31.500 8.333 C 31.225 8.333,31.000 8.408,31.000 8.500 C 31.000 8.592,30.625 8.667,30.167 8.667 C 29.708 8.667,29.333 8.742,29.333 8.833 C 29.333 8.940,27.722 9.000,24.833 9.000 C 21.944 9.000,20.333 8.940,20.333 8.833 C 20.333 8.734,19.694 8.667,18.750 8.667 C 17.806 8.667,17.167 8.599,17.167 8.500 C 17.167 8.404,16.642 8.333,15.927 8.333 C 15.244 8.333,14.640 8.258,14.583 8.167 C 14.527 8.075,13.964 8.000,13.333 8.000 C 12.702 8.000,12.140 7.925,12.083 7.833 C 12.027 7.742,11.816 7.666,11.615 7.665 C 11.138 7.664,10.833 7.001,10.833 5.967 C 10.833 5.527,10.758 5.167,10.667 5.167 C 10.575 5.167,10.500 4.754,10.500 4.250 C 10.500 3.746,10.425 3.333,10.333 3.333 C 10.242 3.333,10.167 2.921,10.167 2.417 C 10.167 1.912,10.092 1.500,10.000 1.500 C 9.908 1.500,9.833 1.163,9.833 0.750 C 9.833 0.061,9.799 0.000,9.417 0.000 C 9.083 0.000,9.000 0.083,9.000 0.417 M304.500 0.833 C 304.500 1.017,304.426 1.167,304.337 1.167 C 304.247 1.167,304.126 1.354,304.068 1.583 C 304.011 1.813,303.897 2.000,303.815 2.000 C 303.734 2.000,303.667 2.150,303.667 2.333 C 303.667 2.517,303.592 2.667,303.500 2.667 C 303.408 2.667,303.333 2.817,303.333 3.000 C 303.333 3.183,303.258 3.333,303.167 3.333 C 303.075 3.333,303.000 3.483,303.000 3.667 C 303.000 3.850,302.925 4.000,302.833 4.000 C 302.742 4.000,302.667 4.112,302.667 4.250 C 302.667 4.387,302.592 4.500,302.500 4.500 C 302.408 4.500,302.333 4.650,302.333 4.833 C 302.333 5.017,302.258 5.167,302.167 5.167 C 302.075 5.167,302.000 5.317,302.000 5.500 C 302.000 5.683,301.926 5.833,301.837 5.833 C 301.747 5.833,301.621 6.039,301.558 6.290 C 301.338 7.166,300.833 7.351,300.833 6.556 C 300.833 6.342,300.758 6.167,300.667 6.167 C 300.575 6.167,300.500 5.942,300.500 5.667 C 300.500 5.392,300.425 5.167,300.333 5.167 C 300.242 5.167,300.167 4.979,300.167 4.750 C 300.167 4.521,300.092 4.333,300.000 4.333 C 299.908 4.333,299.833 4.183,299.833 4.000 C 299.833 3.817,299.758 3.667,299.667 3.667 C 299.575 3.667,299.500 3.517,299.500 3.333 C 299.500 2.817,299.005 2.937,298.808 3.500 C 298.712 3.775,298.566 4.000,298.484 4.000 C 298.401 4.000,298.333 4.096,298.333 4.213 C 298.333 4.330,298.183 4.535,298.000 4.667 C 297.817 4.799,297.667 5.004,297.667 5.124 C 297.667 5.354,295.925 7.173,295.710 7.167 C 295.640 7.165,295.451 7.277,295.290 7.415 C 295.128 7.554,294.885 7.667,294.748 7.667 C 294.612 7.667,294.500 7.742,294.500 7.833 C 294.500 7.925,294.275 8.000,294.000 8.000 C 293.725 8.000,293.500 8.075,293.500 8.167 C 293.500 8.258,293.237 8.333,292.917 8.333 C 292.596 8.333,292.333 8.408,292.333 8.500 C 292.333 8.601,291.583 8.667,290.417 8.667 C 289.250 8.667,288.500 8.601,288.500 8.500 C 288.500 8.402,287.917 8.333,287.083 8.333 C 286.250 8.333,285.667 8.265,285.667 8.167 C 285.667 8.063,284.667 8.000,283.000 8.000 C 281.333 8.000,280.333 8.063,280.333 8.167 C 280.333 8.258,279.921 8.333,279.417 8.333 C 278.912 8.333,278.500 8.408,278.500 8.500 C 278.500 8.594,278.028 8.667,277.417 8.667 C 276.806 8.667,276.333 8.739,276.333 8.833 C 276.333 8.929,275.833 9.000,275.167 9.000 C 274.500 9.000,274.000 8.929,274.000 8.833 C 274.000 8.742,273.737 8.667,273.417 8.667 C 273.096 8.667,272.833 8.592,272.833 8.500 C 272.833 8.408,272.683 8.333,272.500 8.333 C 272.317 8.333,272.167 8.258,272.167 8.167 C 272.167 8.075,272.051 8.000,271.910 8.000 C 271.607 8.000,270.333 6.745,270.333 6.447 C 270.333 6.333,270.183 6.132,270.000 6.000 C 269.804 5.859,269.667 5.569,269.667 5.297 C 269.667 5.042,269.592 4.833,269.500 4.833 C 269.408 4.833,269.333 4.683,269.333 4.500 C 269.333 4.317,269.258 4.167,269.167 4.167 C 269.075 4.167,269.000 3.904,269.000 3.583 C 269.000 3.262,268.925 3.000,268.833 3.000 C 268.742 3.000,268.667 2.850,268.667 2.667 C 268.667 2.483,268.573 2.334,268.458 2.335 C 268.243 2.336,267.833 3.067,267.833 3.450 C 267.833 3.569,267.772 3.667,267.698 3.667 C 267.623 3.667,267.459 3.929,267.333 4.250 C 267.207 4.571,267.043 4.833,266.969 4.833 C 266.894 4.833,266.833 4.983,266.833 5.167 C 266.833 5.350,266.758 5.500,266.667 5.500 C 266.575 5.500,266.500 5.650,266.500 5.833 C 266.500 6.017,266.425 6.167,266.333 6.167 C 266.242 6.167,266.167 6.309,266.167 6.482 C 266.167 6.743,265.871 7.000,265.572 7.000 C 265.534 7.000,265.456 6.698,265.397 6.330 C 265.338 5.961,265.224 5.619,265.145 5.570 C 265.065 5.521,265.000 5.335,265.000 5.157 C 265.000 4.979,264.925 4.833,264.833 4.833 C 264.742 4.833,264.667 4.646,264.667 4.417 C 264.667 4.188,264.592 4.000,264.500 4.000 C 264.408 4.000,264.333 3.775,264.333 3.500 C 264.333 3.225,264.258 3.000,264.167 3.000 C 264.075 3.000,264.000 2.850,264.000 2.667 C 264.000 2.483,263.925 2.333,263.833 2.333 C 263.742 2.333,263.667 2.183,263.667 2.000 C 263.667 1.817,263.566 1.667,263.442 1.667 C 263.100 1.667,262.707 2.205,262.744 2.625 C 262.763 2.831,262.715 3.000,262.639 3.000 C 262.562 3.000,262.500 3.150,262.500 3.333 C 262.500 3.517,262.425 3.667,262.333 3.667 C 262.242 3.667,262.167 3.817,262.167 4.000 C 262.167 4.183,262.092 4.333,262.000 4.333 C 261.908 4.333,261.833 4.446,261.833 4.583 C 261.833 4.721,261.758 4.833,261.667 4.833 C 261.575 4.833,261.500 4.967,261.500 5.130 C 261.500 5.293,261.350 5.535,261.167 5.667 C 260.983 5.799,260.833 6.003,260.833 6.120 C 260.833 6.403,259.523 7.667,259.230 7.667 C 259.103 7.667,259.000 7.742,259.000 7.833 C 259.000 7.925,258.850 8.000,258.667 8.000 C 258.483 8.000,258.333 8.075,258.333 8.167 C 258.333 8.258,258.183 8.333,258.000 8.333 C 257.817 8.333,257.667 8.408,257.667 8.500 C 257.667 8.592,257.404 8.667,257.083 8.667 C 256.762 8.667,256.500 8.742,256.500 8.833 C 256.500 8.930,255.972 9.000,255.250 9.000 C 254.528 9.000,254.000 8.930,254.000 8.833 C 254.000 8.738,253.500 8.667,252.833 8.667 C 252.167 8.667,251.667 8.595,251.667 8.500 C 251.667 8.408,251.329 8.333,250.917 8.333 C 250.504 8.333,250.167 8.258,250.167 8.167 C 250.167 8.075,249.759 8.000,249.260 8.000 C 248.761 8.000,248.307 7.925,248.250 7.833 C 248.112 7.610,244.167 7.610,244.167 7.833 C 244.167 7.925,243.829 8.000,243.417 8.000 C 243.004 8.000,242.667 8.075,242.667 8.167 C 242.667 8.258,242.292 8.333,241.833 8.333 C 241.375 8.333,241.000 8.408,241.000 8.500 C 241.000 8.603,240.167 8.667,238.833 8.667 C 237.500 8.667,236.667 8.603,236.667 8.500 C 236.667 8.408,236.517 8.333,236.333 8.333 C 236.150 8.333,236.000 8.258,236.000 8.167 C 236.000 8.075,235.885 8.000,235.743 8.000 C 235.420 8.000,234.167 6.736,234.167 6.410 C 234.167 6.276,234.092 6.167,234.000 6.167 C 233.908 6.167,233.833 6.017,233.833 5.833 C 233.833 5.650,233.758 5.500,233.667 5.500 C 233.575 5.500,233.500 5.350,233.500 5.167 C 233.500 4.983,233.425 4.833,233.333 4.833 C 233.242 4.833,233.167 4.646,233.167 4.417 C 233.167 4.188,233.092 4.000,233.000 4.000 C 232.908 4.000,232.833 3.577,232.833 3.060 C 232.833 2.360,232.759 2.063,232.542 1.899 C 232.134 1.589,232.000 1.614,232.000 2.000 C 232.000 2.183,231.925 2.333,231.833 2.333 C 231.742 2.333,231.667 2.483,231.667 2.667 C 231.667 2.850,231.592 3.000,231.500 3.000 C 231.408 3.000,231.333 3.225,231.333 3.500 C 231.333 3.775,231.258 4.000,231.167 4.000 C 231.075 4.000,231.000 4.112,231.000 4.250 C 231.000 4.387,230.925 4.500,230.833 4.500 C 230.742 4.500,230.667 4.650,230.667 4.833 C 230.667 5.017,230.592 5.167,230.500 5.167 C 230.408 5.167,230.333 5.317,230.333 5.500 C 230.333 5.683,230.258 5.833,230.167 5.833 C 230.075 5.833,230.000 5.951,230.000 6.095 C 230.000 6.336,229.627 6.833,229.447 6.833 C 229.405 6.833,229.318 6.553,229.254 6.211 C 229.190 5.869,228.994 5.293,228.819 4.930 C 228.643 4.567,228.500 4.135,228.500 3.969 C 228.500 3.803,228.425 3.667,228.333 3.667 C 228.242 3.667,228.167 3.517,228.167 3.333 C 228.167 3.150,228.092 3.000,228.000 3.000 C 227.908 3.000,227.833 2.807,227.833 2.571 C 227.833 2.094,227.490 1.667,227.106 1.667 C 226.855 1.667,226.569 2.245,226.638 2.612 C 226.659 2.720,226.599 2.856,226.504 2.914 C 226.410 2.972,226.333 3.240,226.333 3.510 C 226.333 3.779,226.258 4.000,226.167 4.000 C 226.075 4.000,226.000 4.112,226.000 4.250 C 226.000 4.387,225.925 4.500,225.833 4.500 C 225.742 4.500,225.667 4.614,225.667 4.754 C 225.667 5.037,224.274 6.500,224.004 6.500 C 223.910 6.500,223.833 6.575,223.833 6.667 C 223.833 6.758,223.683 6.833,223.500 6.833 C 223.317 6.833,223.167 6.903,223.167 6.988 C 223.167 7.073,222.942 7.114,222.667 7.079 C 222.392 7.044,222.167 7.087,222.167 7.175 C 222.167 7.262,221.679 7.333,221.083 7.333 C 220.472 7.333,220.000 7.406,220.000 7.500 C 220.000 7.609,217.472 7.667,212.750 7.667 C 208.028 7.667,205.500 7.725,205.500 7.833 C 205.500 7.937,204.611 8.000,203.167 8.000 C 201.722 8.000,200.833 7.937,200.833 7.833 C 200.833 7.742,200.608 7.667,200.333 7.667 C 200.058 7.667,199.833 7.592,199.833 7.500 C 199.833 7.408,199.698 7.333,199.533 7.333 C 199.368 7.333,199.143 7.243,199.033 7.133 C 198.923 7.023,198.833 6.989,198.833 7.058 C 198.833 7.126,198.646 6.994,198.417 6.765 C 198.188 6.536,198.000 6.249,198.000 6.128 C 198.000 6.006,197.850 5.799,197.667 5.667 C 197.471 5.526,197.333 5.235,197.333 4.963 C 197.333 4.708,197.258 4.500,197.167 4.500 C 197.075 4.500,197.000 4.237,197.000 3.917 C 197.000 3.596,196.925 3.333,196.833 3.333 C 196.742 3.333,196.667 3.028,196.667 2.654 C 196.667 2.098,196.614 1.986,196.375 2.032 C 196.215 2.063,196.083 2.174,196.083 2.280 C 196.083 2.386,196.027 2.528,195.958 2.597 C 195.890 2.666,195.833 2.860,195.833 3.028 C 195.833 3.196,195.758 3.333,195.667 3.333 C 195.575 3.333,195.500 3.521,195.500 3.750 C 195.500 3.979,195.425 4.167,195.333 4.167 C 195.242 4.167,195.167 4.392,195.167 4.667 C 195.167 4.942,195.092 5.167,195.000 5.167 C 194.908 5.167,194.833 5.317,194.833 5.500 C 194.833 5.683,194.758 5.833,194.667 5.833 C 194.575 5.833,194.500 6.058,194.500 6.333 C 194.500 6.608,194.434 6.833,194.353 6.833 C 194.272 6.833,194.151 7.002,194.085 7.208 C 193.983 7.526,193.953 7.539,193.887 7.292 C 193.844 7.131,193.739 7.000,193.654 7.000 C 193.570 7.000,193.500 6.813,193.500 6.583 C 193.500 6.354,193.434 6.167,193.353 6.167 C 193.271 6.167,193.154 5.754,193.091 5.250 C 193.028 4.746,192.906 4.333,192.821 4.333 C 192.736 4.333,192.667 4.108,192.667 3.833 C 192.667 3.558,192.592 3.333,192.500 3.333 C 192.408 3.333,192.333 3.157,192.333 2.942 C 192.333 2.497,191.777 1.912,191.511 2.077 C 191.413 2.137,191.333 2.294,191.333 2.427 C 191.333 2.559,191.258 2.667,191.167 2.667 C 191.075 2.667,191.000 2.817,191.000 3.000 C 191.000 3.183,190.925 3.333,190.833 3.333 C 190.742 3.333,190.667 3.516,190.667 3.740 C 190.667 3.964,190.590 4.194,190.497 4.252 C 190.404 4.309,190.374 4.430,190.429 4.520 C 190.485 4.611,190.374 4.820,190.182 4.987 C 189.990 5.153,189.833 5.377,189.833 5.483 C 189.833 5.813,188.721 6.811,188.009 7.119 C 187.637 7.280,187.333 7.469,187.333 7.539 C 187.333 7.609,187.108 7.667,186.833 7.667 C 186.558 7.667,186.333 7.742,186.333 7.833 C 186.333 7.925,185.921 8.000,185.417 8.000 C 184.912 8.000,184.500 8.075,184.500 8.167 C 184.500 8.275,181.750 8.333,176.583 8.333 C 171.417 8.333,168.667 8.275,168.667 8.167 C 168.667 8.062,167.556 8.000,165.667 8.000 C 164.017 8.000,162.667 7.943,162.667 7.873 C 162.667 7.756,161.411 7.120,161.130 7.094 C 161.065 7.088,160.858 6.952,160.670 6.792 C 160.483 6.631,160.218 6.500,160.081 6.500 C 159.945 6.500,159.833 6.426,159.833 6.335 C 159.833 6.133,158.842 5.167,158.634 5.167 C 158.552 5.167,158.297 4.979,158.068 4.750 C 157.685 4.367,157.457 4.261,157.125 4.314 C 157.056 4.324,157.000 4.258,157.000 4.167 C 157.000 4.075,156.831 4.001,156.625 4.001 C 156.237 4.003,155.833 4.614,155.833 5.200 C 155.833 5.365,155.758 5.500,155.667 5.500 C 155.575 5.500,155.500 5.650,155.500 5.833 C 155.500 6.017,155.425 6.167,155.333 6.167 C 155.242 6.167,155.167 6.317,155.167 6.500 C 155.167 6.683,155.092 6.833,155.000 6.833 C 154.908 6.833,154.833 7.021,154.833 7.250 C 154.833 7.479,154.758 7.667,154.667 7.667 C 154.575 7.667,154.500 7.812,154.500 7.990 C 154.500 8.168,154.425 8.360,154.333 8.417 C 154.241 8.474,154.166 8.349,154.166 8.135 C 154.165 7.923,154.053 7.535,153.916 7.273 C 153.779 7.010,153.667 6.654,153.667 6.481 C 153.667 6.308,153.592 6.167,153.500 6.167 C 153.408 6.167,153.333 5.942,153.333 5.667 C 153.333 5.392,153.258 5.167,153.167 5.167 C 153.075 5.167,153.000 5.017,153.000 4.833 C 153.000 4.650,152.925 4.500,152.833 4.500 C 152.742 4.500,152.667 4.345,152.667 4.155 C 152.667 3.965,152.560 3.702,152.429 3.571 C 152.135 3.278,151.500 3.258,151.500 3.542 C 151.500 3.657,151.275 3.963,151.000 4.223 C 150.725 4.483,150.500 4.766,150.500 4.853 C 150.500 5.053,149.395 6.167,149.196 6.167 C 149.115 6.167,148.851 6.405,148.609 6.696 C 148.368 6.988,148.125 7.181,148.069 7.125 C 148.014 7.069,147.710 7.168,147.396 7.345 C 147.081 7.522,146.713 7.667,146.578 7.667 C 146.444 7.667,146.333 7.742,146.333 7.833 C 146.333 7.925,146.146 8.000,145.917 8.000 C 145.688 8.000,145.500 8.075,145.500 8.167 C 145.500 8.258,145.200 8.333,144.833 8.333 C 144.467 8.333,144.167 8.408,144.167 8.500 C 144.167 8.604,143.167 8.667,141.500 8.667 C 139.833 8.667,138.833 8.604,138.833 8.500 C 138.833 8.404,138.306 8.333,137.583 8.333 C 136.861 8.333,136.333 8.263,136.333 8.167 C 136.333 8.070,135.809 8.000,135.093 8.000 C 134.411 8.000,133.807 7.925,133.750 7.833 C 133.611 7.608,128.500 7.608,128.500 7.833 C 128.500 7.925,128.125 8.000,127.667 8.000 C 127.208 8.000,126.833 8.075,126.833 8.167 C 126.833 8.258,126.496 8.333,126.083 8.333 C 125.671 8.333,125.333 8.408,125.333 8.500 C 125.333 8.592,125.000 8.667,124.593 8.667 C 124.186 8.667,123.807 8.742,123.750 8.833 C 123.614 9.053,120.667 9.053,120.667 8.833 C 120.667 8.742,120.442 8.667,120.167 8.667 C 119.892 8.667,119.667 8.592,119.667 8.500 C 119.667 8.408,119.551 8.333,119.410 8.333 C 119.086 8.333,117.500 6.736,117.500 6.410 C 117.500 6.276,117.425 6.167,117.333 6.167 C 117.242 6.167,117.167 6.017,117.167 5.833 C 117.167 5.650,117.092 5.500,117.000 5.500 C 116.908 5.500,116.833 5.275,116.833 5.000 C 116.833 4.725,116.758 4.500,116.667 4.500 C 116.575 4.500,116.500 4.313,116.500 4.083 C 116.500 3.829,116.405 3.667,116.257 3.667 C 115.979 3.667,114.667 4.898,114.667 5.159 C 114.667 5.679,112.678 7.355,112.571 6.926 C 112.512 6.692,112.397 6.500,112.315 6.500 C 112.234 6.500,112.167 6.350,112.167 6.167 C 112.167 5.983,112.092 5.833,112.000 5.833 C 111.908 5.833,111.833 5.740,111.833 5.625 C 111.832 4.705,110.731 4.315,110.167 5.035 C 109.774 5.536,108.659 6.664,108.100 7.125 C 107.961 7.240,107.732 7.333,107.590 7.333 C 107.449 7.333,107.333 7.408,107.333 7.500 C 107.333 7.592,107.221 7.667,107.083 7.667 C 106.946 7.667,106.833 7.742,106.833 7.833 C 106.833 7.925,106.683 8.000,106.500 8.000 C 106.317 8.000,106.167 8.075,106.167 8.167 C 106.167 8.258,105.942 8.333,105.667 8.333 C 105.392 8.333,105.167 8.408,105.167 8.500 C 105.167 8.592,104.904 8.667,104.583 8.667 C 104.263 8.667,104.000 8.742,104.000 8.833 C 104.000 8.937,103.083 9.000,101.583 9.000 C 100.083 9.000,99.167 8.937,99.167 8.833 C 99.167 8.739,98.694 8.667,98.083 8.667 C 97.472 8.667,97.000 8.594,97.000 8.500 C 97.000 8.408,96.587 8.333,96.083 8.333 C 95.579 8.333,95.167 8.258,95.167 8.167 C 95.167 8.063,94.222 8.000,92.667 8.000 C 91.111 8.000,90.167 8.063,90.167 8.167 C 90.167 8.259,89.722 8.333,89.167 8.333 C 88.611 8.333,88.167 8.407,88.167 8.500 C 88.167 8.592,87.754 8.667,87.250 8.667 C 86.746 8.667,86.333 8.742,86.333 8.833 C 86.333 8.931,85.750 9.000,84.917 9.000 C 84.083 9.000,83.500 8.931,83.500 8.833 C 83.500 8.742,83.275 8.667,83.000 8.667 C 82.725 8.667,82.500 8.610,82.500 8.541 C 82.500 8.471,82.259 8.308,81.965 8.178 C 81.671 8.048,81.194 7.711,80.906 7.429 C 80.618 7.147,80.221 6.806,80.024 6.672 C 79.828 6.537,79.667 6.293,79.667 6.130 C 79.667 5.967,79.592 5.833,79.500 5.833 C 79.408 5.833,79.333 5.702,79.332 5.542 C 79.332 5.381,79.219 5.035,79.082 4.773 C 78.945 4.510,78.833 4.154,78.833 3.981 C 78.833 3.808,78.758 3.667,78.667 3.667 C 78.575 3.667,78.500 3.442,78.500 3.167 C 78.500 2.892,78.425 2.667,78.333 2.667 C 78.242 2.667,78.167 2.517,78.167 2.333 C 78.167 2.111,78.056 2.000,77.833 2.000 C 77.574 2.000,77.500 2.111,77.500 2.500 C 77.500 2.775,77.425 3.000,77.333 3.000 C 77.242 3.000,77.167 3.258,77.167 3.573 C 77.167 3.889,77.092 4.193,77.000 4.250 C 76.908 4.307,76.833 4.611,76.833 4.927 C 76.833 5.242,76.763 5.500,76.678 5.500 C 76.592 5.500,76.550 5.800,76.583 6.167 C 76.617 6.533,76.574 6.833,76.489 6.833 C 76.403 6.833,76.325 7.040,76.316 7.292 L 76.298 7.750 76.117 7.292 C 76.017 7.040,75.875 6.833,75.801 6.833 C 75.727 6.833,75.667 6.608,75.667 6.333 C 75.667 6.058,75.592 5.833,75.500 5.833 C 75.408 5.833,75.333 5.683,75.333 5.500 C 75.333 5.317,75.258 5.167,75.167 5.167 C 75.075 5.167,75.000 4.979,75.000 4.750 C 75.000 4.521,74.925 4.333,74.833 4.333 C 74.742 4.333,74.667 4.190,74.667 4.014 C 74.667 3.838,74.597 3.669,74.512 3.639 C 74.428 3.608,74.334 3.473,74.304 3.337 C 74.274 3.202,74.162 2.996,74.054 2.879 C 73.647 2.439,73.500 2.670,73.500 3.750 C 73.500 4.361,73.427 4.833,73.333 4.833 C 73.242 4.833,73.167 5.058,73.167 5.333 C 73.167 5.608,73.092 5.833,73.000 5.833 C 72.908 5.833,72.833 5.983,72.833 6.167 C 72.833 6.350,72.758 6.500,72.667 6.500 C 72.575 6.500,72.500 6.662,72.500 6.861 C 72.500 7.060,72.453 7.175,72.395 7.117 C 72.337 7.059,72.082 7.234,71.828 7.506 C 71.574 7.778,71.284 8.000,71.183 8.000 C 71.082 8.000,71.000 8.075,71.000 8.167 C 71.000 8.258,70.850 8.333,70.667 8.333 C 70.483 8.333,70.333 8.408,70.333 8.500 C 70.333 8.609,66.861 8.667,60.250 8.667 L 50.167 8.667 50.167 9.250 L 50.167 9.833 182.250 9.833 C 276.065 9.833,314.333 9.782,314.333 9.655 C 314.333 9.252,313.829 9.000,313.022 9.000 C 312.562 9.000,312.140 8.925,312.083 8.833 C 312.027 8.742,311.385 8.667,310.657 8.667 C 309.886 8.667,309.333 8.597,309.333 8.500 C 309.333 8.408,309.033 8.333,308.667 8.333 C 308.300 8.333,308.000 8.258,308.000 8.167 C 308.000 8.075,307.850 8.000,307.667 8.000 C 307.483 8.000,307.333 7.925,307.333 7.833 C 307.333 7.742,307.237 7.667,307.120 7.667 C 307.003 7.667,306.802 7.521,306.673 7.342 C 306.545 7.164,306.378 7.056,306.303 7.102 C 306.228 7.148,306.167 7.032,306.167 6.843 C 306.167 6.654,306.092 6.500,306.000 6.500 C 305.908 6.500,305.833 6.350,305.833 6.167 C 305.833 5.983,305.758 5.833,305.667 5.833 C 305.575 5.833,305.500 5.608,305.500 5.333 C 305.500 5.058,305.425 4.833,305.333 4.833 C 305.232 4.833,305.167 4.114,305.167 3.010 C 305.167 1.974,305.239 1.142,305.333 1.083 C 305.699 0.857,305.495 0.500,305.000 0.500 C 304.611 0.500,304.500 0.574,304.500 0.833 M368.042 2.249 C 367.927 2.379,367.833 2.602,367.833 2.743 C 367.833 2.884,367.758 3.000,367.667 3.000 C 367.575 3.000,367.500 3.150,367.500 3.333 C 367.500 3.517,367.425 3.667,367.333 3.667 C 367.242 3.667,367.167 3.829,367.167 4.028 C 367.167 4.226,367.120 4.342,367.063 4.286 C 366.936 4.158,366.500 4.576,366.500 4.827 C 366.500 4.928,366.238 5.274,365.917 5.594 C 365.596 5.915,365.333 6.250,365.333 6.339 C 365.333 6.428,365.183 6.500,365.000 6.500 C 364.817 6.500,364.667 6.575,364.667 6.667 C 364.667 6.758,364.544 6.833,364.393 6.833 C 364.243 6.833,364.013 6.965,363.881 7.125 C 363.750 7.285,363.689 7.323,363.747 7.208 C 363.872 6.962,363.567 6.924,363.417 7.167 C 363.360 7.258,363.131 7.333,362.907 7.333 C 362.683 7.333,362.500 7.408,362.500 7.500 C 362.500 7.606,361.167 7.667,358.833 7.667 C 356.500 7.667,355.167 7.606,355.167 7.500 C 355.167 7.406,354.694 7.333,354.083 7.333 C 353.472 7.333,353.000 7.406,353.000 7.500 C 353.000 7.594,352.528 7.667,351.917 7.667 C 351.306 7.667,350.833 7.739,350.833 7.833 C 350.833 7.925,350.425 8.000,349.927 8.000 C 349.428 8.000,348.973 8.075,348.917 8.167 C 348.620 8.646,342.340 8.288,342.335 7.792 C 342.334 7.723,342.217 7.667,342.076 7.667 C 341.835 7.667,341.549 7.447,340.627 6.550 C 340.018 5.959,339.833 5.697,339.833 5.424 C 339.833 5.282,339.758 5.167,339.667 5.167 C 339.575 5.167,339.500 5.017,339.500 4.833 C 339.500 4.650,339.425 4.500,339.333 4.500 C 339.242 4.500,339.167 4.313,339.167 4.083 C 339.167 3.854,339.092 3.667,339.000 3.667 C 338.908 3.667,338.833 3.474,338.833 3.238 C 338.833 2.806,338.498 2.333,338.191 2.333 C 337.996 2.333,337.472 3.320,337.577 3.490 C 337.617 3.554,337.503 3.711,337.324 3.840 C 337.146 3.968,337.000 4.170,337.000 4.287 C 337.000 4.404,336.925 4.500,336.833 4.500 C 336.742 4.500,336.667 4.650,336.667 4.833 C 336.667 5.017,336.592 5.167,336.500 5.167 C 336.408 5.167,336.333 5.300,336.333 5.463 C 336.333 5.626,336.183 5.868,336.000 6.000 C 335.817 6.132,335.667 6.374,335.667 6.537 C 335.667 6.895,335.554 6.911,335.238 6.595 C 335.107 6.464,335.000 6.089,335.000 5.762 C 335.000 5.435,334.934 5.167,334.853 5.167 C 334.771 5.167,334.654 4.754,334.591 4.250 C 334.463 3.226,333.854 2.944,333.333 3.667 C 333.201 3.850,332.997 4.000,332.881 4.000 C 332.764 4.000,332.107 4.562,331.422 5.250 C 330.737 5.937,330.067 6.500,329.933 6.500 C 329.799 6.500,329.640 6.656,329.579 6.846 C 329.519 7.036,329.432 7.154,329.385 7.108 C 329.250 6.972,327.833 8.467,327.833 8.746 C 327.833 8.970,328.754 9.000,335.657 9.000 C 340.693 9.000,343.517 9.059,343.583 9.167 C 343.719 9.387,347.447 9.387,347.583 9.167 C 347.651 9.057,356.585 9.000,373.843 9.000 C 396.312 9.000,400.000 8.967,400.000 8.764 C 400.000 8.241,399.784 8.000,399.316 8.000 C 399.050 8.000,398.833 7.925,398.833 7.833 C 398.833 7.742,398.650 7.667,398.427 7.667 C 398.203 7.667,397.973 7.592,397.917 7.500 C 397.860 7.408,397.481 7.333,397.073 7.333 C 396.666 7.333,396.333 7.274,396.333 7.202 C 396.333 6.949,392.754 6.899,385.126 7.048 C 382.405 7.101,380.463 7.075,380.408 6.986 C 380.356 6.902,379.981 6.833,379.573 6.833 C 379.166 6.833,378.833 6.758,378.833 6.667 C 378.833 6.575,378.608 6.500,378.333 6.500 C 378.058 6.500,377.833 6.425,377.833 6.333 C 377.833 6.242,377.683 6.167,377.500 6.167 C 377.317 6.167,377.167 6.092,377.167 6.000 C 377.167 5.908,377.017 5.833,376.833 5.833 C 376.650 5.833,376.500 5.758,376.500 5.667 C 376.500 5.575,376.387 5.500,376.250 5.500 C 376.113 5.500,376.000 5.438,376.000 5.361 C 376.000 5.285,375.795 5.117,375.544 4.986 C 375.061 4.736,374.532 4.325,373.900 3.708 C 373.418 3.239,372.500 3.187,372.500 3.630 C 372.500 3.793,372.350 4.035,372.167 4.167 C 371.983 4.299,371.833 4.503,371.833 4.620 C 371.833 4.737,371.767 4.833,371.686 4.833 C 371.604 4.833,371.415 5.093,371.265 5.410 C 371.114 5.727,370.918 6.031,370.829 6.086 C 370.740 6.141,370.667 6.332,370.667 6.510 C 370.667 6.688,370.592 6.833,370.500 6.833 C 370.408 6.833,370.333 6.608,370.333 6.333 C 370.333 6.058,370.258 5.833,370.167 5.833 C 370.075 5.833,370.000 5.683,370.000 5.500 C 370.000 5.317,369.925 5.167,369.833 5.167 C 369.742 5.167,369.667 4.979,369.667 4.750 C 369.667 4.521,369.592 4.333,369.500 4.333 C 369.408 4.333,369.333 4.183,369.333 4.000 C 369.333 3.817,369.258 3.667,369.167 3.667 C 369.075 3.667,369.000 3.442,369.000 3.167 C 369.000 2.892,368.925 2.667,368.833 2.667 C 368.742 2.667,368.667 2.517,368.667 2.333 C 368.667 1.948,368.345 1.905,368.042 2.249 M0.000 13.167 C 0.000 13.500,0.083 13.667,0.250 13.667 C 0.388 13.667,0.500 13.742,0.500 13.833 C 0.500 13.925,0.725 14.000,1.000 14.000 C 1.275 14.000,1.500 14.075,1.500 14.167 C 1.500 14.258,1.762 14.333,2.083 14.333 C 2.404 14.333,2.667 14.408,2.667 14.500 C 2.667 14.608,4.833 14.667,8.833 14.667 C 12.515 14.667,15.000 14.729,15.000 14.821 C 15.000 14.906,15.412 15.028,15.917 15.091 C 16.421 15.154,16.833 15.271,16.833 15.353 C 16.833 15.434,16.983 15.500,17.167 15.500 C 17.350 15.500,17.500 15.575,17.500 15.667 C 17.500 15.758,17.645 15.833,17.822 15.833 C 17.999 15.833,18.188 15.971,18.242 16.140 C 18.295 16.309,18.544 16.552,18.794 16.682 C 19.264 16.924,20.000 17.576,20.000 17.750 C 20.000 17.956,20.830 18.667,21.070 18.667 C 21.332 18.667,22.500 17.681,22.500 17.460 C 22.500 17.261,23.665 16.079,23.686 16.257 C 23.696 16.345,23.715 16.492,23.728 16.583 C 23.778 16.960,24.411 18.333,24.534 18.333 C 24.607 18.333,24.667 18.521,24.667 18.750 C 24.667 19.102,24.744 19.167,25.167 19.167 C 25.442 19.167,25.667 19.089,25.667 18.993 C 25.667 18.778,26.918 17.500,27.129 17.500 C 27.214 17.500,27.519 17.275,27.807 17.000 C 28.095 16.725,28.443 16.500,28.582 16.500 C 28.720 16.500,28.833 16.425,28.833 16.333 C 28.833 16.242,28.946 16.167,29.083 16.167 C 29.221 16.167,29.333 16.092,29.333 16.000 C 29.333 15.908,29.483 15.833,29.667 15.833 C 29.850 15.833,30.000 15.758,30.000 15.667 C 30.000 15.575,30.150 15.500,30.333 15.500 C 30.517 15.500,30.667 15.431,30.667 15.347 C 30.667 15.262,31.154 15.141,31.750 15.077 C 32.346 15.013,32.833 14.895,32.833 14.814 C 32.833 14.586,39.459 14.626,39.535 14.854 C 39.579 14.986,41.378 15.067,45.632 15.129 C 48.951 15.176,51.667 15.279,51.667 15.358 C 51.667 15.436,51.892 15.500,52.167 15.500 C 52.442 15.500,52.667 15.575,52.667 15.667 C 52.667 15.758,52.892 15.833,53.167 15.833 C 53.442 15.833,53.667 15.908,53.667 16.000 C 53.667 16.092,53.854 16.167,54.083 16.167 C 54.313 16.167,54.500 16.242,54.500 16.333 C 54.500 16.425,54.650 16.500,54.833 16.500 C 55.017 16.500,55.167 16.575,55.167 16.667 C 55.167 16.758,55.392 16.833,55.667 16.833 C 55.942 16.833,56.167 16.908,56.167 17.000 C 56.167 17.092,56.317 17.167,56.500 17.167 C 56.683 17.167,56.833 17.242,56.833 17.333 C 56.833 17.425,57.006 17.500,57.217 17.500 C 57.427 17.500,57.671 17.569,57.758 17.653 C 58.087 17.971,59.489 18.060,59.581 17.769 C 59.628 17.621,59.706 17.378,59.753 17.228 C 59.825 17.002,59.921 17.037,60.325 17.437 C 61.069 18.170,61.296 18.333,61.580 18.333 C 61.868 18.333,63.218 17.532,63.306 17.308 C 63.336 17.230,63.477 17.167,63.619 17.167 C 63.761 17.167,63.999 17.035,64.147 16.874 C 64.295 16.713,64.623 16.475,64.875 16.346 C 65.127 16.216,65.333 16.048,65.333 15.972 C 65.333 15.896,65.418 15.833,65.522 15.833 C 65.626 15.833,65.857 15.665,66.036 15.458 C 66.356 15.088,66.424 15.083,70.972 15.039 C 73.673 15.012,75.721 14.924,75.917 14.824 C 76.755 14.398,86.667 14.889,86.667 15.357 C 86.667 15.436,86.817 15.500,87.000 15.500 C 87.183 15.500,87.333 15.575,87.333 15.667 C 87.333 15.758,87.446 15.833,87.583 15.833 C 87.721 15.833,87.833 15.908,87.833 16.000 C 87.833 16.092,87.967 16.167,88.130 16.167 C 88.293 16.167,88.535 16.317,88.667 16.500 C 88.799 16.683,89.008 16.833,89.131 16.833 C 89.254 16.833,89.836 17.321,90.423 17.917 C 91.564 19.075,92.073 19.259,92.500 18.667 C 92.632 18.483,92.836 18.333,92.953 18.333 C 93.071 18.333,93.167 18.272,93.167 18.198 C 93.167 18.032,94.251 17.500,94.589 17.500 C 94.723 17.500,94.833 17.425,94.833 17.333 C 94.833 17.242,94.983 17.167,95.167 17.167 C 95.350 17.167,95.500 17.092,95.500 17.000 C 95.500 16.908,95.688 16.833,95.917 16.833 C 96.146 16.833,96.333 16.758,96.333 16.667 C 96.333 16.575,96.633 16.500,97.000 16.500 C 97.367 16.500,97.667 16.425,97.667 16.333 C 97.667 16.242,97.892 16.167,98.167 16.167 C 98.442 16.167,98.667 16.092,98.667 16.000 C 98.667 15.908,99.004 15.833,99.417 15.833 C 99.829 15.833,100.167 15.758,100.167 15.667 C 100.167 15.575,100.573 15.500,101.069 15.500 C 101.566 15.500,101.997 15.430,102.028 15.344 C 102.058 15.259,103.190 15.135,104.542 15.070 C 105.894 15.005,107.000 14.888,107.000 14.809 C 107.000 14.731,108.162 14.667,109.583 14.667 C 111.194 14.667,112.167 14.604,112.167 14.500 C 112.167 14.395,113.222 14.333,115.000 14.333 C 116.675 14.333,117.833 14.398,117.833 14.491 C 117.833 14.580,118.877 14.684,120.208 14.728 C 123.390 14.832,127.070 15.162,127.139 15.349 C 127.169 15.432,127.488 15.500,127.847 15.500 C 128.206 15.500,128.500 15.575,128.500 15.667 C 128.500 15.758,128.762 15.833,129.083 15.833 C 129.404 15.833,129.667 15.908,129.667 16.000 C 129.667 16.092,129.892 16.167,130.167 16.167 C 130.442 16.167,130.667 16.242,130.667 16.333 C 130.667 16.425,130.817 16.500,131.000 16.500 C 131.183 16.500,131.333 16.575,131.333 16.667 C 131.333 16.758,131.563 16.833,131.843 16.833 C 132.124 16.833,132.314 16.897,132.266 16.975 C 132.217 17.053,132.382 17.221,132.631 17.350 C 132.880 17.478,133.187 17.681,133.313 17.801 C 133.714 18.181,134.391 17.976,134.579 17.417 C 134.837 16.653,135.667 16.081,135.667 16.667 C 135.667 16.758,135.817 16.833,136.000 16.833 C 136.183 16.833,136.333 16.894,136.333 16.967 C 136.333 17.141,137.923 18.000,138.245 18.000 C 138.517 18.000,140.333 16.258,140.333 15.996 C 140.333 15.907,140.467 15.833,140.630 15.833 C 140.793 15.833,141.033 15.686,141.163 15.505 C 141.304 15.309,141.688 15.134,142.118 15.069 C 142.514 15.010,142.878 14.895,142.929 14.814 C 142.979 14.733,143.203 14.667,143.427 14.667 C 143.650 14.667,143.833 14.592,143.833 14.500 C 143.833 14.275,149.444 14.275,149.583 14.500 C 149.640 14.592,150.117 14.667,150.643 14.667 C 151.169 14.667,151.691 14.757,151.802 14.868 C 152.096 15.163,160.360 15.170,160.458 14.875 C 160.504 14.737,160.890 14.667,161.597 14.667 C 162.199 14.667,162.667 14.594,162.667 14.500 C 162.667 14.396,163.639 14.333,165.250 14.333 C 166.861 14.333,167.833 14.396,167.833 14.500 C 167.833 14.592,167.950 14.667,168.094 14.667 C 168.530 14.667,170.000 15.195,170.000 15.353 C 170.000 15.434,170.150 15.500,170.333 15.500 C 170.517 15.500,170.667 15.563,170.667 15.641 C 170.667 15.718,171.079 16.207,171.583 16.728 C 172.088 17.248,172.500 17.714,172.500 17.761 C 172.500 17.884,173.296 18.667,173.421 18.667 C 173.591 18.667,174.000 18.204,174.000 18.012 C 174.000 17.914,174.075 17.833,174.167 17.833 C 174.258 17.833,174.333 17.700,174.333 17.537 C 174.333 17.374,174.483 17.132,174.667 17.000 C 174.850 16.868,175.000 16.626,175.000 16.463 C 175.000 16.300,175.075 16.167,175.167 16.167 C 175.258 16.167,175.333 16.017,175.333 15.833 C 175.333 15.650,175.400 15.500,175.481 15.500 C 175.562 15.500,175.684 15.331,175.752 15.125 L 175.876 14.750 175.949 15.125 C 175.990 15.331,176.093 15.500,176.178 15.500 C 176.264 15.500,176.333 15.712,176.333 15.972 C 176.333 16.232,176.390 16.501,176.458 16.569 C 176.527 16.638,176.590 16.744,176.597 16.806 C 176.648 17.211,177.031 17.833,177.230 17.833 C 177.549 17.833,178.833 17.141,178.833 16.969 C 178.833 16.894,178.946 16.833,179.083 16.833 C 179.221 16.833,179.333 16.758,179.333 16.667 C 179.333 16.575,179.467 16.500,179.630 16.500 C 179.793 16.500,180.035 16.350,180.167 16.167 C 180.299 15.983,180.540 15.833,180.703 15.833 C 180.867 15.833,181.000 15.758,181.000 15.667 C 181.000 15.575,181.150 15.500,181.333 15.500 C 181.517 15.500,181.667 15.428,181.667 15.341 C 181.667 14.991,181.785 14.987,196.583 14.746 C 199.936 14.691,202.213 14.719,202.417 14.816 C 202.600 14.903,203.350 15.023,204.083 15.081 C 204.817 15.139,205.442 15.257,205.472 15.343 C 205.503 15.429,205.747 15.500,206.014 15.500 C 206.281 15.500,206.500 15.575,206.500 15.667 C 206.500 15.758,206.688 15.833,206.917 15.833 C 207.146 15.833,207.333 15.908,207.333 16.000 C 207.333 16.092,207.483 16.167,207.667 16.167 C 207.850 16.167,208.000 16.242,208.000 16.333 C 208.000 16.425,208.225 16.500,208.500 16.500 C 208.775 16.500,209.000 16.575,209.000 16.667 C 209.000 16.758,209.150 16.833,209.333 16.833 C 209.517 16.833,209.667 16.908,209.667 17.000 C 209.667 17.092,209.779 17.167,209.917 17.167 C 210.054 17.167,210.167 17.242,210.167 17.333 C 210.167 17.619,211.030 17.516,211.314 17.196 C 211.462 17.028,211.827 16.785,212.125 16.655 C 212.423 16.525,212.667 16.362,212.667 16.293 C 212.667 16.223,212.817 16.167,213.000 16.167 C 213.183 16.167,213.333 16.092,213.333 16.000 C 213.333 15.908,213.558 15.833,213.833 15.833 C 214.108 15.833,214.333 15.758,214.333 15.667 C 214.333 15.575,214.596 15.500,214.917 15.500 C 215.237 15.500,215.500 15.437,215.500 15.361 C 215.500 15.208,218.638 14.864,221.250 14.730 C 222.167 14.684,222.988 14.575,223.075 14.489 C 223.295 14.273,232.449 14.283,232.583 14.500 C 232.641 14.593,233.415 14.667,234.333 14.667 C 235.239 14.667,236.020 14.730,236.068 14.808 C 236.116 14.886,236.889 15.001,237.786 15.064 C 238.683 15.127,239.442 15.251,239.472 15.339 C 239.503 15.428,239.784 15.500,240.097 15.500 C 240.410 15.500,240.667 15.575,240.667 15.667 C 240.667 15.758,240.892 15.833,241.167 15.833 C 241.442 15.833,241.667 15.908,241.667 16.000 C 241.667 16.092,241.817 16.167,242.000 16.167 C 242.183 16.167,242.333 16.242,242.333 16.333 C 242.333 16.425,242.465 16.500,242.627 16.500 C 242.788 16.500,243.013 16.650,243.128 16.833 C 243.357 17.200,245.210 17.335,245.417 17.000 C 245.473 16.908,245.778 16.833,246.093 16.833 C 246.409 16.833,246.667 16.758,246.667 16.667 C 246.667 16.575,247.042 16.500,247.500 16.500 C 247.958 16.500,248.333 16.425,248.333 16.333 C 248.333 16.242,248.596 16.167,248.917 16.167 C 249.237 16.167,249.500 16.092,249.500 16.000 C 249.500 15.908,249.833 15.833,250.240 15.833 C 250.647 15.833,251.027 15.758,251.083 15.667 C 251.140 15.575,251.513 15.500,251.913 15.500 C 252.312 15.500,252.664 15.424,252.695 15.332 C 252.726 15.239,253.695 15.116,254.875 15.056 C 256.044 14.997,257.000 14.884,257.000 14.805 C 257.000 14.377,278.982 14.916,279.139 15.347 C 279.169 15.431,279.526 15.500,279.931 15.500 C 280.335 15.500,280.667 15.575,280.667 15.667 C 280.667 15.758,281.004 15.833,281.417 15.833 C 281.829 15.833,282.167 15.908,282.167 16.000 C 282.167 16.092,282.467 16.167,282.833 16.167 C 283.200 16.167,283.500 16.242,283.500 16.333 C 283.500 16.425,283.837 16.500,284.250 16.500 C 284.662 16.500,285.000 16.575,285.000 16.667 C 285.000 16.758,285.375 16.833,285.833 16.833 C 286.292 16.833,286.667 16.908,286.667 17.000 C 286.667 17.092,286.970 17.167,287.341 17.167 C 288.013 17.167,288.833 16.615,288.833 16.162 C 288.833 15.890,289.268 15.500,289.571 15.500 C 289.715 15.500,289.833 15.426,289.833 15.337 C 289.833 15.247,290.021 15.126,290.250 15.068 C 290.479 15.011,290.667 14.897,290.667 14.815 C 290.667 14.734,290.892 14.667,291.167 14.667 C 291.442 14.667,291.667 14.592,291.667 14.500 C 291.667 14.408,292.004 14.333,292.417 14.333 C 292.829 14.333,293.167 14.258,293.167 14.167 C 293.167 13.947,295.947 13.947,296.083 14.167 C 296.140 14.258,296.744 14.333,297.427 14.333 C 298.142 14.333,298.667 14.404,298.667 14.500 C 298.667 14.592,299.075 14.667,299.573 14.667 C 300.072 14.667,300.523 14.736,300.576 14.821 C 300.628 14.906,301.345 15.028,302.169 15.092 C 302.993 15.157,303.667 15.275,303.667 15.355 C 303.667 15.435,303.929 15.500,304.250 15.500 C 304.571 15.500,304.833 15.575,304.833 15.667 C 304.833 15.758,305.133 15.833,305.500 15.833 C 305.867 15.833,306.167 15.908,306.167 16.000 C 306.167 16.092,306.504 16.167,306.917 16.167 C 307.329 16.167,307.667 16.242,307.667 16.333 C 307.667 16.425,307.967 16.500,308.333 16.500 C 308.700 16.500,309.000 16.575,309.000 16.667 C 309.000 16.758,309.262 16.833,309.583 16.833 C 309.904 16.833,310.167 16.908,310.167 17.000 C 310.167 17.092,310.387 17.167,310.657 17.167 C 310.926 17.167,311.193 17.242,311.250 17.333 C 311.307 17.425,311.611 17.500,311.927 17.500 C 312.242 17.500,312.500 17.569,312.500 17.652 C 312.500 17.736,313.063 17.858,313.750 17.922 C 314.438 17.986,315.000 18.105,315.000 18.186 C 315.000 18.426,316.004 18.354,316.262 18.095 C 316.393 17.964,316.500 17.814,316.500 17.760 C 316.500 17.707,316.725 17.428,317.000 17.140 C 317.275 16.853,317.500 16.516,317.500 16.392 C 317.500 16.268,317.574 16.167,317.663 16.167 C 317.753 16.167,317.877 15.960,317.939 15.708 C 318.080 15.132,318.667 14.699,318.667 15.171 C 318.667 15.679,320.168 16.833,320.829 16.833 C 321.198 16.833,321.500 16.758,321.500 16.667 C 321.500 16.575,321.725 16.500,322.000 16.500 C 322.275 16.500,322.500 16.425,322.500 16.333 C 322.500 16.242,322.650 16.167,322.833 16.167 C 323.017 16.167,323.167 16.092,323.167 16.000 C 323.167 15.908,323.354 15.833,323.583 15.833 C 323.813 15.833,324.000 15.758,324.000 15.667 C 324.000 15.575,324.144 15.500,324.319 15.500 C 324.495 15.500,324.670 15.406,324.708 15.292 C 324.761 15.132,326.053 15.071,330.222 15.029 C 333.414 14.998,335.667 14.912,335.667 14.821 C 335.667 14.736,336.379 14.667,337.250 14.667 C 338.194 14.667,338.833 14.599,338.833 14.500 C 338.833 14.275,344.111 14.275,344.250 14.500 C 344.307 14.592,344.719 14.667,345.167 14.667 C 345.614 14.667,346.023 14.736,346.076 14.822 C 346.129 14.907,346.583 15.028,347.086 15.091 C 347.589 15.154,348.000 15.271,348.000 15.353 C 348.000 15.434,348.150 15.500,348.333 15.500 C 348.517 15.500,348.667 15.575,348.667 15.667 C 348.667 15.758,348.779 15.833,348.917 15.833 C 349.054 15.833,349.167 15.908,349.167 16.000 C 349.167 16.092,349.317 16.167,349.500 16.167 C 349.683 16.167,349.833 16.242,349.833 16.333 C 349.833 16.425,349.953 16.500,350.100 16.500 C 350.246 16.500,350.576 16.725,350.833 17.000 C 351.321 17.522,353.645 17.773,353.917 17.333 C 353.973 17.242,354.278 17.167,354.593 17.167 C 354.909 17.167,355.167 17.092,355.167 17.000 C 355.167 16.908,355.317 16.833,355.500 16.833 C 355.683 16.833,355.833 16.758,355.833 16.667 C 355.833 16.575,356.021 16.500,356.250 16.500 C 356.479 16.500,356.667 16.425,356.667 16.333 C 356.667 16.242,356.817 16.167,357.000 16.167 C 357.183 16.167,357.333 16.092,357.333 16.000 C 357.333 15.908,357.558 15.833,357.833 15.833 C 358.108 15.833,358.333 15.758,358.333 15.667 C 358.333 15.575,358.483 15.500,358.667 15.500 C 358.850 15.500,359.000 15.429,359.000 15.342 C 359.000 15.254,359.452 15.132,360.004 15.070 C 360.556 15.007,361.048 14.891,361.097 14.811 C 361.146 14.732,362.232 14.667,363.510 14.667 C 364.948 14.667,365.833 14.603,365.833 14.500 C 365.833 14.392,367.833 14.333,371.500 14.333 C 375.167 14.333,377.167 14.392,377.167 14.500 C 377.167 14.605,378.219 14.667,379.990 14.667 C 381.543 14.667,382.853 14.730,382.901 14.808 C 382.949 14.886,383.723 15.001,384.619 15.064 C 385.516 15.127,386.275 15.251,386.306 15.339 C 386.336 15.428,386.580 15.500,386.847 15.500 C 387.115 15.500,387.333 15.575,387.333 15.667 C 387.333 15.758,387.596 15.833,387.917 15.833 C 388.238 15.833,388.500 15.908,388.500 16.000 C 388.500 16.092,388.725 16.167,389.000 16.167 C 389.275 16.167,389.500 16.242,389.500 16.333 C 389.500 16.425,389.683 16.500,389.907 16.500 C 390.131 16.500,390.360 16.575,390.417 16.667 C 390.473 16.758,390.703 16.833,390.927 16.833 C 391.150 16.833,391.333 16.908,391.333 17.000 C 391.333 17.092,391.558 17.167,391.833 17.167 C 392.108 17.167,392.333 17.242,392.333 17.333 C 392.333 17.425,392.516 17.500,392.740 17.500 C 392.964 17.500,393.189 17.568,393.240 17.651 C 393.586 18.211,395.500 17.952,395.500 17.345 C 395.500 17.247,395.574 17.167,395.663 17.167 C 395.753 17.167,395.879 16.960,395.942 16.708 C 396.004 16.456,396.268 16.051,396.528 15.808 C 396.788 15.565,397.000 15.300,397.000 15.220 C 397.000 15.139,397.150 14.965,397.333 14.833 C 397.517 14.701,397.667 14.487,397.667 14.358 C 397.667 14.228,397.823 13.987,398.013 13.822 C 398.224 13.639,398.338 13.371,398.305 13.136 L 398.250 12.750 199.125 12.708 L 0.000 12.667 0.000 13.167 " stroke="none"  fill-rule="evenodd"></path><path id="path1" d="M382.965 7.124 C 383.541 7.156,384.441 7.156,384.965 7.123 C 385.488 7.090,385.017 7.063,383.917 7.064 C 382.817 7.064,382.388 7.091,382.965 7.124 M387.460 7.118 C 387.668 7.158,387.968 7.156,388.127 7.115 C 388.286 7.073,388.117 7.040,387.750 7.042 C 387.383 7.044,387.253 7.078,387.460 7.118 " stroke="none"  fill-rule="evenodd"></path><path id="path2" d="M382.965 7.124 C 383.541 7.156,384.441 7.156,384.965 7.123 C 385.488 7.090,385.017 7.063,383.917 7.064 C 382.817 7.064,382.388 7.091,382.965 7.124 M387.460 7.118 C 387.668 7.158,387.968 7.156,388.127 7.115 C 388.286 7.073,388.117 7.040,387.750 7.042 C 387.383 7.044,387.253 7.078,387.460 7.118 " stroke="none"  fill-rule="evenodd"></path><path id="path3" d="M382.965 7.124 C 383.541 7.156,384.441 7.156,384.965 7.123 C 385.488 7.090,385.017 7.063,383.917 7.064 C 382.817 7.064,382.388 7.091,382.965 7.124 M387.460 7.118 C 387.668 7.158,387.968 7.156,388.127 7.115 C 388.286 7.073,388.117 7.040,387.750 7.042 C 387.383 7.044,387.253 7.078,387.460 7.118 " stroke="none"  fill-rule="evenodd"></path><path id="path4" d="M382.965 7.124 C 383.541 7.156,384.441 7.156,384.965 7.123 C 385.488 7.090,385.017 7.063,383.917 7.064 C 382.817 7.064,382.388 7.091,382.965 7.124 M387.460 7.118 C 387.668 7.158,387.968 7.156,388.127 7.115 C 388.286 7.073,388.117 7.040,387.750 7.042 C 387.383 7.044,387.253 7.078,387.460 7.118 " stroke="none"  fill-rule="evenodd"></path></g></svg>